<mxfile host="Electron" modified="2023-07-27T15:01:45.394Z" agent="Mozilla/5.0 (Windows NT 10.0; Win64; x64) AppleWebKit/537.36 (KHTML, like Gecko) draw.io/21.6.5 Chrome/114.0.5735.243 Electron/25.3.1 Safari/537.36" etag="4w2ZR4Fh6cmGwxJfQ2j-" version="21.6.5" type="device">
  <diagram name="Page-1" id="_02pzmvWjvDIsG3hY_nk">
    <mxGraphModel dx="1434" dy="844" grid="1" gridSize="10" guides="1" tooltips="1" connect="1" arrows="1" fold="1" page="1" pageScale="1" pageWidth="850" pageHeight="1100" math="0" shadow="0">
      <root>
        <mxCell id="0" />
        <mxCell id="1" parent="0" />
        <mxCell id="bv_Co3qxVKMui_XiMAbu-1" value="«abstract class»&lt;br&gt;&lt;b&gt;DistributedEntity&lt;/b&gt;" style="html=1;dropTarget=0;whiteSpace=wrap;" vertex="1" parent="1">
          <mxGeometry x="80" y="40" width="180" height="90" as="geometry" />
        </mxCell>
        <mxCell id="bv_Co3qxVKMui_XiMAbu-2" value="" style="shape=module;jettyWidth=8;jettyHeight=4;" vertex="1" parent="bv_Co3qxVKMui_XiMAbu-1">
          <mxGeometry x="1" width="20" height="20" relative="1" as="geometry">
            <mxPoint x="-27" y="7" as="offset" />
          </mxGeometry>
        </mxCell>
      </root>
    </mxGraphModel>
  </diagram>
</mxfile>
